HIERARCHY
ROOT Hips
{
	OFFSET 0.000000 83.214638 0.000000
	CHANNELS 6 Xposition Yposition Zposition Xrotation Yrotation Zrotation
	JOINT Pelvis
	{
		OFFSET 0.000000 0.000000 0.000000
		CHANNELS 3 Xrotation Yrotation Zrotation
		JOINT LeftUpLeg
		{
			OFFSET 8.479700 -4.795502 -0.379100
			CHANNELS 3 Xrotation Yrotation Zrotation
			JOINT LeftLeg
			{
				OFFSET 0.024144 -32.555107 0.112900
				CHANNELS 3 Xrotation Yrotation Zrotation
				JOINT LeftFoot
				{
					OFFSET -0.024144 -32.638630 -3.012600
					CHANNELS 3 Xrotation Yrotation Zrotation
					JOINT LeftToeBase
					{
						OFFSET 0.970200 -13.225400 11.864200
						CHANNELS 3 Xrotation Yrotation Zrotation
						End Site
						{
							OFFSET 0.000000 12.319262 0.000000
						}
					}
					JOINT LFootTongue
					{
						OFFSET 1.142400 -1.059800 6.665200
						CHANNELS 3 Xrotation Yrotation Zrotation
						End Site
						{
							OFFSET 0.000000 12.319262 0.000000
						}
					}
				}
				JOINT LeftPantLeg
				{
					OFFSET 0.918482 -16.533964 -2.284700
					CHANNELS 3 Xrotation Yrotation Zrotation
					End Site
					{
						OFFSET 0.350399 24.744368 0.000000
					}
				}
			}
		}
		JOINT RightUpLeg
		{
			OFFSET -8.479700 -4.795502 -0.379100
			CHANNELS 3 Xrotation Yrotation Zrotation
			JOINT RightLeg
			{
				OFFSET -0.023144 -32.555092 0.112900
				CHANNELS 3 Xrotation Yrotation Zrotation
				JOINT RightFoot
				{
					OFFSET 0.023144 -32.638641 -3.012700
					CHANNELS 3 Xrotation Yrotation Zrotation
					JOINT RightToeBase
					{
						OFFSET -0.970200 -13.225400 11.864200
						CHANNELS 3 Xrotation Yrotation Zrotation
						End Site
						{
							OFFSET 0.000000 12.319244 0.000000
						}
					}
					JOINT RFootTongue
					{
						OFFSET -1.142200 -1.059800 6.665200
						CHANNELS 3 Xrotation Yrotation Zrotation
						End Site
						{
							OFFSET 0.000000 12.319243 0.000000
						}
					}
				}
				JOINT RightPantLeg
				{
					OFFSET -0.919482 -16.533978 -2.284800
					CHANNELS 3 Xrotation Yrotation Zrotation
					End Site
					{
						OFFSET -0.350400 24.744419 0.000000
					}
				}
			}
		}
	}
	JOINT Spine
	{
		OFFSET 0.000000 7.722000 1.166200
		CHANNELS 3 Xrotation Yrotation Zrotation
		JOINT Spine1
		{
			OFFSET 0.000000 12.024101 0.248800
			CHANNELS 3 Xrotation Yrotation Zrotation
			JOINT Spine2
			{
				OFFSET 0.000000 11.502998 -0.491200
				CHANNELS 3 Xrotation Yrotation Zrotation
				JOINT Neck
				{
					OFFSET 0.000000 18.430702 -3.123100
					CHANNELS 3 Xrotation Yrotation Zrotation
					JOINT Head
					{
						OFFSET 0.000000 9.051102 1.034000
						CHANNELS 3 Xrotation Yrotation Zrotation
						JOINT HairB
						{
							OFFSET 0.208400 24.786102 24.822300
							CHANNELS 3 Xrotation Yrotation Zrotation
							End Site
							{
								OFFSET 0.000000 32.263779 0.000000
							}
						}
						JOINT HairA
						{
							OFFSET -7.081100 24.428299 23.196600
							CHANNELS 3 Xrotation Yrotation Zrotation
							End Site
							{
								OFFSET 0.000000 32.263779 0.000000
							}
						}
						JOINT Hat
						{
							OFFSET 16.728800 15.048294 -15.439601
							CHANNELS 3 Xrotation Yrotation Zrotation
							End Site
							{
								OFFSET 0.000000 32.263779 0.000000
							}
						}
					}
				}
				JOINT LeftShoulder
				{
					OFFSET 6.197800 13.665199 -4.064700
					CHANNELS 3 Xrotation Yrotation Zrotation
					JOINT LeftArm
					{
						OFFSET 7.778100 -0.187103 -1.709300
						CHANNELS 3 Xrotation Yrotation Zrotation
						JOINT LeftForeArm
						{
							OFFSET 22.049376 0.000000 0.000000
							CHANNELS 3 Xrotation Yrotation Zrotation
							JOINT LeftHand
							{
								OFFSET 23.009392 0.000000 0.000000
								CHANNELS 3 Xrotation Yrotation Zrotation
								JOINT LeftHandThumb1
								{
									OFFSET 3.507191 -2.063065 3.133727
									CHANNELS 3 Xrotation Yrotation Zrotation
									JOINT LeftHandThumb2
									{
										OFFSET 3.101337 -1.790558 1.790558
										CHANNELS 3 Xrotation Yrotation Zrotation
										JOINT LeftHandThumb3
										{
											OFFSET 3.058640 -1.765907 1.765906
											CHANNELS 3 Xrotation Yrotation Zrotation
											End Site
											{
												OFFSET -0.415260 3.926476 -0.049563
											}
										}
									}
								}
								JOINT LeftHandIndex1
								{
									OFFSET 11.334419 -0.901459 3.706815
									CHANNELS 3 Xrotation Yrotation Zrotation
									JOINT LeftHandIndex2
									{
										OFFSET 3.283112 0.000000 0.000000
										CHANNELS 3 Xrotation Yrotation Zrotation
										JOINT LeftHandIndex3
										{
											OFFSET 3.323853 0.000000 0.000000
											CHANNELS 3 Xrotation Yrotation Zrotation
											End Site
											{
												OFFSET -1.135597 3.097809 0.402452
											}
										}
									}
								}
								JOINT LeftHandMiddle1
								{
									OFFSET 11.335861 0.000000 0.000000
									CHANNELS 3 Xrotation Yrotation Zrotation
									JOINT LeftHandMiddle2
									{
										OFFSET 3.410492 0.000000 0.000000
										CHANNELS 3 Xrotation Yrotation Zrotation
										JOINT LeftHandMiddle3
										{
											OFFSET 3.312172 0.000000 0.000000
											CHANNELS 3 Xrotation Yrotation Zrotation
											End Site
											{
												OFFSET -1.150200 3.080154 0.400270
											}
										}
									}
								}
								JOINT LeftHandRing1
								{
									OFFSET 11.514786 -0.013176 -3.003090
									CHANNELS 3 Xrotation Yrotation Zrotation
									JOINT LeftHandRing2
									{
										OFFSET 3.053307 0.000000 0.000000
										CHANNELS 3 Xrotation Yrotation Zrotation
										JOINT LeftHandRing3
										{
											OFFSET 3.295807 0.000000 0.000000
											CHANNELS 3 Xrotation Yrotation Zrotation
											End Site
											{
												OFFSET -1.281006 3.013344 0.375733
											}
										}
									}
								}
								JOINT LeftHandPinky1
								{
									OFFSET 10.518692 -0.960396 -5.730441
									CHANNELS 3 Xrotation Yrotation Zrotation
									JOINT LeftHandPinky2
									{
										OFFSET 2.861649 0.000000 0.000000
										CHANNELS 3 Xrotation Yrotation Zrotation
										JOINT LeftHandPinky3
										{
											OFFSET 2.863380 0.000000 0.000000
											CHANNELS 3 Xrotation Yrotation Zrotation
											End Site
											{
												OFFSET -0.843597 2.711159 0.369971
											}
										}
									}
								}
							}
							JOINT LSleeve
							{
								OFFSET 6.676277 -0.344902 -1.011730
								CHANNELS 3 Xrotation Yrotation Zrotation
								End Site
								{
									OFFSET 0.000000 14.885353 0.000000
								}
							}
						}
					}
				}
				JOINT RightShoulder
				{
					OFFSET -6.197800 13.665199 -4.064700
					CHANNELS 3 Xrotation Yrotation Zrotation
					JOINT RightArm
					{
						OFFSET -7.778100 -0.187103 -1.709300
						CHANNELS 3 Xrotation Yrotation Zrotation
						JOINT RightForeArm
						{
							OFFSET -22.049376 0.000000 0.000000
							CHANNELS 3 Xrotation Yrotation Zrotation
							JOINT RightHand
							{
								OFFSET -23.009392 0.000000 0.000000
								CHANNELS 3 Xrotation Yrotation Zrotation
								JOINT RightHandThumb1
								{
									OFFSET -3.507191 -2.063065 3.133727
									CHANNELS 3 Xrotation Yrotation Zrotation
									JOINT RightHandThumb2
									{
										OFFSET -3.101337 -1.790558 1.790558
										CHANNELS 3 Xrotation Yrotation Zrotation
										JOINT RightHandThumb3
										{
											OFFSET -3.058640 -1.765907 1.765906
											CHANNELS 3 Xrotation Yrotation Zrotation
											End Site
											{
												OFFSET 0.415260 3.926476 -0.049563
											}
										}
									}
								}
								JOINT RightHandIndex1
								{
									OFFSET -11.334419 -0.901459 3.706815
									CHANNELS 3 Xrotation Yrotation Zrotation
									JOINT RightHandIndex2
									{
										OFFSET -3.283112 0.000000 0.000000
										CHANNELS 3 Xrotation Yrotation Zrotation
										JOINT RightHandIndex3
										{
											OFFSET -3.323853 0.000000 0.000000
											CHANNELS 3 Xrotation Yrotation Zrotation
											End Site
											{
												OFFSET 1.135597 3.097809 0.402452
											}
										}
									}
								}
								JOINT RightHandMiddle1
								{
									OFFSET -11.335861 0.000000 0.000000
									CHANNELS 3 Xrotation Yrotation Zrotation
									JOINT RightHandMiddle2
									{
										OFFSET -3.410492 0.000000 0.000000
										CHANNELS 3 Xrotation Yrotation Zrotation
										JOINT RightHandMiddle3
										{
											OFFSET -3.312172 0.000000 0.000000
											CHANNELS 3 Xrotation Yrotation Zrotation
											End Site
											{
												OFFSET 1.150200 3.080154 0.400270
											}
										}
									}
								}
								JOINT RightHandRing1
								{
									OFFSET -11.514786 -0.013176 -3.003090
									CHANNELS 3 Xrotation Yrotation Zrotation
									JOINT RightHandRing2
									{
										OFFSET -3.053307 0.000000 0.000000
										CHANNELS 3 Xrotation Yrotation Zrotation
										JOINT RightHandRing3
										{
											OFFSET -3.295807 0.000000 0.000000
											CHANNELS 3 Xrotation Yrotation Zrotation
											End Site
											{
												OFFSET 1.281006 3.013344 0.375733
											}
										}
									}
								}
								JOINT RightHandPinky1
								{
									OFFSET -10.518692 -0.960396 -5.730441
									CHANNELS 3 Xrotation Yrotation Zrotation
									JOINT RightHandPinky2
									{
										OFFSET -2.861649 0.000000 0.000000
										CHANNELS 3 Xrotation Yrotation Zrotation
										JOINT RightHandPinky3
										{
											OFFSET -2.863380 0.000000 0.000000
											CHANNELS 3 Xrotation Yrotation Zrotation
											End Site
											{
												OFFSET 0.843597 2.711159 0.369971
											}
										}
									}
								}
							}
							JOINT RSleeve
							{
								OFFSET -6.676277 -0.344902 -1.011730
								CHANNELS 3 Xrotation Yrotation Zrotation
								End Site
								{
									OFFSET 0.000000 14.885353 0.000000
								}
							}
						}
					}
				}
				JOINT Backpack
				{
					OFFSET 0.000000 -2.471497 36.677502
					CHANNELS 3 Xrotation Yrotation Zrotation
					End Site
					{
						OFFSET 0.000000 20.427315 0.000000
					}
				}
				JOINT Hood
				{
					OFFSET 0.000000 18.754097 -10.431000
					CHANNELS 3 Xrotation Yrotation Zrotation
					JOINT Hood1
					{
						OFFSET 0.000000 -5.011002 -7.685901
						CHANNELS 3 Xrotation Yrotation Zrotation
						End Site
						{
							OFFSET 0.000000 9.175140 0.000000
						}
					}
				}
				JOINT LHoodieString
				{
					OFFSET 5.250500 16.397697 3.089900
					CHANNELS 3 Xrotation Yrotation Zrotation
					JOINT LHoodieString1
					{
						OFFSET 0.257700 -6.364304 3.694600
						CHANNELS 3 Xrotation Yrotation Zrotation
						JOINT LHoodieString2
						{
							OFFSET 0.000000 -9.643799 2.679100
							CHANNELS 3 Xrotation Yrotation Zrotation
							End Site
							{
								OFFSET 0.000000 10.009018 0.000000
							}
						}
					}
				}
				JOINT RHoodieString
				{
					OFFSET -5.250500 16.397697 3.089900
					CHANNELS 3 Xrotation Yrotation Zrotation
					JOINT RHoodieString1
					{
						OFFSET -0.257700 -6.364304 3.694600
						CHANNELS 3 Xrotation Yrotation Zrotation
						JOINT RHoodieString2
						{
							OFFSET 0.000000 -9.643799 2.679100
							CHANNELS 3 Xrotation Yrotation Zrotation
							End Site
							{
								OFFSET 0.000000 10.009018 0.000000
							}
						}
					}
				}
			}
			JOINT LBackpack_Strap
			{
				OFFSET 15.223200 -7.719803 -6.610900
				CHANNELS 3 Xrotation Yrotation Zrotation
				End Site
				{
					OFFSET 0.000000 16.040596 0.000000
				}
			}
			JOINT RBackpack_Strap
			{
				OFFSET -15.223000 -7.719803 -6.610900
				CHANNELS 3 Xrotation Yrotation Zrotation
				End Site
				{
					OFFSET 0.000000 16.040596 0.000000
				}
			}
		}
	}
	JOINT BoyFacialAnim_Joint
	{
		OFFSET 1.000000 -82.208099 -1.550900
		CHANNELS 3 Xrotation Yrotation Zrotation
		End Site
		{
			OFFSET 0.000000 30.012791 0.000000
		}
	}
}
MOTION
Frames: 4
Frame Time: 0.033333
4.044499 79.502563 -0.870974 17.883095 -13.053788 2.656210 -0.000002 -0.000001 0.000000 -45.348710 13.300900 3.287856 31.248518 0.043635 -1.062821 -5.284546 16.434900 9.846484 -0.000000 0.000001 -0.000000 -0.000000 0.000001 -0.000000 0.000000 0.000000 -0.000000 -41.638093 12.334604 -3.973627 51.468983 5.487699 -0.161238 1.566039 -11.653866 21.981144 0.000001 0.000000 -0.000000 0.000001 0.000000 -0.000000 -0.000003 -0.000000 -0.000000 4.175497 -1.127885 -0.943998 8.347746 -2.129743 -1.379991 8.347716 -2.129739 -1.379990 -25.040597 -0.741148 7.783576 -18.707861 7.912400 2.250903 -0.000000 0.000000 -0.000000 -0.000000 0.000000 -0.000000 -0.000000 0.000000 -0.000000 -1.829507 -0.917968 -3.838378 -3.311524 -33.620807 -53.532813 0.884628 -53.153458 0.707783 44.261480 -7.202236 29.764626 10.895197 12.034574 6.699575 6.223956 16.173736 4.492720 -0.000000 -0.000000 -0.000001 0.122820 14.870869 -36.492092 0.696865 1.825765 -21.964210 -0.000002 -0.000001 -0.000002 0.784398 5.516756 -33.285786 -0.326150 -1.424598 -33.551918 0.000002 -0.000001 0.000000 1.034311 4.704161 -43.347082 -1.131056 -2.095428 -35.650719 0.000002 0.000001 -0.000000 3.162097 2.861388 -46.780324 -1.187589 -4.400252 -25.938185 -0.000000 0.000001 0.000002 0.000000 -0.000002 0.000002 -5.341893 3.257953 1.558018 12.061554 17.553929 70.134356 -1.549490 61.599297 1.490844 61.640135 8.954529 -3.738788 -1.127212 -14.579619 5.950518 4.503901 -12.118426 -4.168935 0.000001 0.000002 0.000003 -3.374199 -7.211525 24.427222 0.064983 -0.766800 9.330723 -0.000001 -0.000001 0.000002 0.947908 -2.845910 19.024640 -0.122715 0.670961 13.407054 0.000002 0.000001 -0.000002 -1.800332 -1.908754 23.359508 -0.349447 0.400015 13.440309 0.000001 0.000000 0.000004 1.850564 -5.365324 23.651847 -0.878898 3.395887 11.661704 0.000001 0.000001 0.000001 0.000001 0.000001 -0.000001 0.000005 0.000001 0.000001 0.000005 0.000001 0.000001 0.000005 0.000001 0.000001 0.000005 0.000001 0.000001 0.000005 0.000001 0.000001 0.000001 0.000000 -0.000000 0.000005 0.000001 0.000001 0.000005 0.000001 0.000001 0.000001 0.000000 -0.000000 -0.000001 0.000001 -0.000001 -0.000001 0.000001 -0.000001 -0.000002 -0.000001 0.000000 
3.933323 80.183678 -0.401806 16.769964 -15.032008 2.377884 -0.000001 0.000001 -0.000000 -42.312475 12.728795 3.711385 28.882114 0.069378 -0.985531 -4.738716 18.284860 9.252617 0.000000 0.000001 -0.000000 0.000000 0.000001 -0.000000 -0.000000 -0.000000 -0.000000 -38.763420 13.548501 -2.950889 43.858543 2.154726 1.212162 -2.322110 -11.560027 22.064486 -0.000001 0.000000 -0.000000 -0.000001 0.000000 -0.000000 -0.000003 -0.000000 -0.000000 3.908063 -1.185789 -0.791180 7.810454 -2.310484 -1.243373 7.810456 -2.310487 -1.243373 -24.228247 -0.223837 7.604900 -17.379912 9.463926 2.626859 -0.000000 0.000001 -0.000000 -0.000000 0.000001 -0.000000 -0.000000 0.000001 -0.000000 -1.872183 -0.699165 -4.260441 0.018178 -29.561533 -52.586692 0.974923 -55.074585 0.799215 46.989260 -3.143195 27.150250 10.770074 11.330847 7.424892 5.587391 14.768969 4.846490 0.000000 -0.000001 -0.000002 -0.136716 14.984009 -35.322723 0.670635 1.756968 -21.059746 -0.000001 -0.000000 -0.000002 0.857916 5.810804 -32.600158 -0.261200 -1.285762 -30.531294 0.000001 -0.000002 -0.000000 0.873527 4.546905 -42.128180 -0.940541 -1.841893 -32.374690 -0.000001 0.000000 -0.000000 3.392285 3.053941 -45.857545 -1.069098 -4.183867 -24.596925 0.000000 0.000000 -0.000000 0.000000 -0.000003 0.000001 -5.144396 3.202617 2.215641 14.261453 14.777323 68.892621 -1.909896 59.421259 1.800373 67.000809 8.598215 -3.469577 -2.338240 -13.387383 5.444467 3.991818 -11.116571 -4.180112 0.000001 0.000000 -0.000002 -3.749348 -6.949420 23.168895 0.059719 -0.765157 9.293739 -0.000000 -0.000000 0.000002 0.832547 -2.809281 18.292408 -0.115462 0.642516 12.873542 0.000000 0.000000 -0.000000 -1.584533 -2.078849 21.878860 -0.339828 0.376306 12.773550 -0.000001 -0.000000 0.000000 2.231892 -6.071478 21.787754 -0.856223 3.347125 10.821302 -0.000001 -0.000000 -0.000001 0.000001 -0.000001 -0.000001 -0.000000 0.000000 0.000000 -0.000000 0.000000 0.000000 -0.000000 0.000000 0.000000 -0.000000 0.000000 0.000000 -0.000000 0.000000 -0.000000 -0.000000 0.000000 -0.000000 -0.000000 0.000000 0.000000 -0.000000 0.000000 -0.000000 -0.000000 0.000000 -0.000000 -0.000001 0.000001 -0.000001 -0.000001 0.000001 -0.000001 -0.000001 0.000001 -0.000000 
3.652048 80.740639 0.174133 15.286863 -16.145944 2.003872 -0.000001 0.000002 -0.000000 -38.970447 11.283757 3.578215 26.878227 0.102831 -0.916753 -4.323684 20.386334 8.538554 -0.000000 0.000001 -0.000000 -0.000000 0.000001 -0.000000 -0.000000 0.000000 0.000000 -34.351251 13.522363 -2.467385 34.918669 -1.414924 1.834607 -5.005463 -10.845186 21.112209 -0.000000 -0.000002 0.000000 -0.000000 -0.000002 0.000000 0.000001 0.000000 -0.000000 3.634145 -1.242977 -0.636008 7.262269 -2.459243 -1.034395 7.262253 -2.459235 -1.034398 -23.256649 0.163750 7.328561 -16.055633 10.289635 2.623626 0.000000 -0.000000 -0.000000 0.000000 -0.000000 -0.000000 0.000000 -0.000000 -0.000000 -1.928884 -0.698668 -4.952381 2.631355 -26.506014 -52.255400 1.035911 -55.032829 0.848768 48.093319 1.061361 24.654459 10.614645 10.586973 8.116538 4.851524 13.123849 5.262611 0.000000 -0.000002 -0.000001 -0.481109 15.081859 -33.686196 0.633355 1.663022 -19.790273 -0.000000 -0.000000 0.000002 0.883250 6.041360 -31.831612 -0.189074 -1.103043 -26.660856 0.000001 -0.000001 0.000002 0.702932 4.367595 -40.545560 -0.743449 -1.543842 -28.684404 -0.000000 -0.000001 -0.000001 3.707377 3.373248 -44.699364 -0.940264 -3.935116 -23.075487 -0.000000 -0.000001 -0.000000 0.000000 -0.000000 0.000002 -4.949731 2.995789 3.006959 16.384184 11.739879 68.116063 -2.259262 57.067658 2.083015 71.598967 9.702396 -1.933655 -3.516025 -12.291365 4.699755 3.454555 -10.060543 -4.189434 0.000000 -0.000001 0.000002 -4.303395 -6.206362 20.957614 0.052635 -0.758155 9.145389 0.000000 0.000001 0.000000 0.701206 -2.581497 16.828198 -0.107517 0.610431 12.277488 0.000000 0.000000 -0.000002 -1.287383 -2.427849 20.092818 -0.330971 0.354210 12.138383 -0.000000 -0.000000 0.000000 2.790534 -7.417222 19.545558 -0.828599 3.287748 9.883304 0.000000 -0.000001 0.000000 -0.000000 -0.000001 -0.000002 -0.000000 0.000000 -0.000000 -0.000000 0.000000 -0.000000 -0.000000 0.000000 -0.000000 -0.000000 0.000000 -0.000000 -0.000000 0.000000 0.000000 -0.000004 -0.000001 0.000002 -0.000000 0.000000 -0.000000 -0.000000 0.000000 0.000000 -0.000004 -0.000001 0.000002 0.000002 0.000001 -0.000000 0.000002 0.000001 -0.000000 -0.000001 0.000002 -0.000000 
3.217702 81.237358 0.794344 13.532987 -16.414929 1.525108 -0.000000 -0.000000 0.000000 -35.364817 9.631442 3.201184 24.864846 0.139500 -0.834862 -3.832179 21.995782 7.796833 -0.000000 0.000000 -0.000000 -0.000000 0.000000 -0.000000 -0.000000 -0.000000 -0.000000 -28.978464 10.226560 -2.464024 25.774511 -2.148615 1.855025 -6.896026 -10.121761 16.534298 -0.000000 -0.000001 -0.000000 -0.000000 -0.000001 -0.000000 0.000001 0.000001 -0.000000 3.369261 -1.259165 -0.469549 6.734094 -2.505142 -0.760372 6.734098 -2.505142 -0.760371 -22.124595 0.415657 7.030353 -14.702527 10.553518 2.178046 -0.000001 0.000001 -0.000000 -0.000001 0.000001 -0.000000 -0.000001 0.000001 -0.000000 -1.982789 -0.768100 -5.625522 4.540562 -24.948948 -52.409332 1.057547 -52.962451 0.844048 47.091064 5.043191 22.235768 10.336771 9.696836 8.705325 4.186444 11.563559 5.628230 0.000002 -0.000001 -0.000001 -0.859215 14.982211 -32.661230 0.609636 1.592904 -18.894902 -0.000002 0.000000 0.000002 0.734657 5.991659 -31.197268 -0.147544 -0.978424 -24.074506 0.000001 -0.000001 -0.000002 0.475432 4.088383 -39.102437 -0.611417 -1.316572 -25.973008 -0.000000 0.000001 -0.000002 4.102907 3.828126 -43.354291 -0.799519 -3.644523 -21.324136 -0.000001 0.000001 -0.000000 -0.000000 0.000000 -0.000001 -4.753265 2.664763 4.111411 18.537844 8.396708 67.502971 -2.600883 54.677741 2.341859 74.558714 11.019534 0.339939 -4.275660 -11.799074 4.286997 3.112501 -9.348979 -4.181689 -0.000002 0.000001 0.000002 -4.613350 -5.940000 19.592751 0.045812 -0.753101 9.038857 0.000000 0.000001 0.000000 0.569537 -2.446918 16.214263 -0.103630 0.595996 11.946429 0.000001 0.000001 0.000002 -1.243170 -2.441401 19.690064 -0.332638 0.358548 11.951987 -0.000000 0.000000 0.000002 2.936417 -7.794397 18.914129 -0.830654 3.288451 9.554182 -0.000000 -0.000001 0.000000 0.000000 0.000000 -0.000000 -0.000000 0.000001 -0.000001 -0.000000 0.000001 -0.000001 -0.000000 0.000001 -0.000001 -0.000000 0.000001 -0.000001 -0.000000 0.000001 -0.000001 -0.000000 0.000001 -0.000001 -0.000000 0.000001 -0.000001 -0.000000 0.000001 -0.000001 -0.000000 0.000001 -0.000001 -0.000001 0.000001 -0.000000 -0.000001 0.000001 -0.000000 -0.000000 -0.000000 0.000000 
